<?xml version="1.0" encoding="us-ascii" standalone="no"?><svg xmlns="http://www.w3.org/2000/svg" xmlns:xlink="http://www.w3.org/1999/xlink" contentStyleType="text/css" height="252px" preserveAspectRatio="none" style="width:1683px;height:252px;background:#FFFFFF;" version="1.1" viewBox="0 0 1683 252" width="1683px" zoomAndPan="magnify"><defs/><g><line style="stroke:#181818;stroke-width:0.5;stroke-dasharray:5.0,5.0;" x1="214" x2="214" y1="38.6211" y2="215.0762"/><line style="stroke:#181818;stroke-width:0.5;stroke-dasharray:5.0,5.0;" x1="574" x2="574" y1="38.6211" y2="215.0762"/><line style="stroke:#181818;stroke-width:0.5;stroke-dasharray:5.0,5.0;" x1="853" x2="853" y1="38.6211" y2="215.0762"/><line style="stroke:#181818;stroke-width:0.5;stroke-dasharray:5.0,5.0;" x1="1081" x2="1081" y1="38.6211" y2="215.0762"/><line style="stroke:#181818;stroke-width:0.5;stroke-dasharray:5.0,5.0;" x1="1288" x2="1288" y1="38.6211" y2="215.0762"/><line style="stroke:#181818;stroke-width:0.5;stroke-dasharray:5.0,5.0;" x1="1541" x2="1541" y1="38.6211" y2="215.0762"/><rect fill="#E2E2F0" height="32.6211" rx="2.5" ry="2.5" style="stroke:#181818;stroke-width:0.5;" width="419" x="5" y="5"/><text fill="#000000" font-family="sans-serif" font-size="14" lengthAdjust="spacing" textLength="405" x="12" y="27.1074">DefaultDispatcherResourceManagerComponentFactory.create()</text><rect fill="#E2E2F0" height="32.6211" rx="2.5" ry="2.5" style="stroke:#181818;stroke-width:0.5;" width="419" x="5" y="214.0762"/><text fill="#000000" font-family="sans-serif" font-size="14" lengthAdjust="spacing" textLength="405" x="12" y="236.1836">DefaultDispatcherResourceManagerComponentFactory.create()</text><rect fill="#E2E2F0" height="32.6211" rx="2.5" ry="2.5" style="stroke:#181818;stroke-width:0.5;" width="281" x="434" y="5"/><text fill="#000000" font-family="sans-serif" font-size="14" lengthAdjust="spacing" textLength="267" x="441" y="27.1074">restEndpointFactory.createRestEndpoint()</text><rect fill="#E2E2F0" height="32.6211" rx="2.5" ry="2.5" style="stroke:#181818;stroke-width:0.5;" width="281" x="434" y="214.0762"/><text fill="#000000" font-family="sans-serif" font-size="14" lengthAdjust="spacing" textLength="267" x="441" y="236.1836">restEndpointFactory.createRestEndpoint()</text><rect fill="#E2E2F0" height="32.6211" rx="2.5" ry="2.5" style="stroke:#181818;stroke-width:0.5;" width="257" x="725" y="5"/><text fill="#000000" font-family="sans-serif" font-size="14" lengthAdjust="spacing" textLength="243" x="732" y="27.1074">ResourceManagerServiceImpl.create()</text><rect fill="#E2E2F0" height="32.6211" rx="2.5" ry="2.5" style="stroke:#181818;stroke-width:0.5;" width="257" x="725" y="214.0762"/><text fill="#000000" font-family="sans-serif" font-size="14" lengthAdjust="spacing" textLength="243" x="732" y="236.1836">ResourceManagerServiceImpl.create()</text><rect fill="#E2E2F0" height="32.6211" rx="2.5" ry="2.5" style="stroke:#181818;stroke-width:0.5;" width="179" x="992" y="5"/><text fill="#000000" font-family="sans-serif" font-size="14" lengthAdjust="spacing" textLength="165" x="999" y="27.1074">createDispatcherRunner()</text><rect fill="#E2E2F0" height="32.6211" rx="2.5" ry="2.5" style="stroke:#181818;stroke-width:0.5;" width="179" x="992" y="214.0762"/><text fill="#000000" font-family="sans-serif" font-size="14" lengthAdjust="spacing" textLength="165" x="999" y="236.1836">createDispatcherRunner()</text><rect fill="#E2E2F0" height="32.6211" rx="2.5" ry="2.5" style="stroke:#181818;stroke-width:0.5;" width="215" x="1181" y="5"/><text fill="#000000" font-family="sans-serif" font-size="14" lengthAdjust="spacing" textLength="201" x="1188" y="27.1074">resourceManagerService.start()</text><rect fill="#E2E2F0" height="32.6211" rx="2.5" ry="2.5" style="stroke:#181818;stroke-width:0.5;" width="215" x="1181" y="214.0762"/><text fill="#000000" font-family="sans-serif" font-size="14" lengthAdjust="spacing" textLength="201" x="1188" y="236.1836">resourceManagerService.start()</text><rect fill="#E2E2F0" height="32.6211" rx="2.5" ry="2.5" style="stroke:#181818;stroke-width:0.5;" width="271" x="1406" y="5"/><text fill="#000000" font-family="sans-serif" font-size="14" lengthAdjust="spacing" textLength="257" x="1413" y="27.1074">resourceManagerRetrievalService.start()</text><rect fill="#E2E2F0" height="32.6211" rx="2.5" ry="2.5" style="stroke:#181818;stroke-width:0.5;" width="271" x="1406" y="214.0762"/><text fill="#000000" font-family="sans-serif" font-size="14" lengthAdjust="spacing" textLength="257" x="1413" y="236.1836">resourceManagerRetrievalService.start()</text><polygon fill="#181818" points="562.5,67.9121,572.5,71.9121,562.5,75.9121,566.5,71.9121" style="stroke:#181818;stroke-width:1.0;"/><line style="stroke:#181818;stroke-width:1.0;" x1="214.5" x2="568.5" y1="71.9121" y2="71.9121"/><text fill="#000000" font-family="sans-serif" font-size="13" font-weight="bold" lengthAdjust="spacing" textLength="7" x="221.5" y="66.6494">1</text><text fill="#000000" font-family="sans-serif" font-size="13" lengthAdjust="spacing" textLength="89" x="232.5" y="66.6494">&#21551;&#21160;RestServer</text><polygon fill="#181818" points="841.5,99.2031,851.5,103.2031,841.5,107.2031,845.5,103.2031" style="stroke:#181818;stroke-width:1.0;"/><line style="stroke:#181818;stroke-width:1.0;" x1="214.5" x2="847.5" y1="103.2031" y2="103.2031"/><text fill="#000000" font-family="sans-serif" font-size="13" font-weight="bold" lengthAdjust="spacing" textLength="7" x="221.5" y="97.9404">2</text><text fill="#000000" font-family="sans-serif" font-size="13" lengthAdjust="spacing" textLength="131" x="232.5" y="97.9404">&#21019;&#24314;ResourceManager</text><polygon fill="#181818" points="1069.5,130.4941,1079.5,134.4941,1069.5,138.4941,1073.5,134.4941" style="stroke:#181818;stroke-width:1.0;"/><line style="stroke:#181818;stroke-width:1.0;" x1="214.5" x2="1075.5" y1="134.4941" y2="134.4941"/><text fill="#000000" font-family="sans-serif" font-size="13" font-weight="bold" lengthAdjust="spacing" textLength="7" x="221.5" y="129.2314">3</text><text fill="#000000" font-family="sans-serif" font-size="13" lengthAdjust="spacing" textLength="243" x="232.5" y="129.2314">DispatcherRunnerFactory: &#21019;&#24314;Dispatcher</text><polygon fill="#181818" points="1276.5,161.7852,1286.5,165.7852,1276.5,169.7852,1280.5,165.7852" style="stroke:#181818;stroke-width:1.0;"/><line style="stroke:#181818;stroke-width:1.0;" x1="214.5" x2="1282.5" y1="165.7852" y2="165.7852"/><text fill="#000000" font-family="sans-serif" font-size="13" font-weight="bold" lengthAdjust="spacing" textLength="7" x="221.5" y="160.5225">4</text><text fill="#000000" font-family="sans-serif" font-size="13" lengthAdjust="spacing" textLength="52" x="232.5" y="160.5225">&#21551;&#21160;&#26381;&#21153;</text><polygon fill="#181818" points="1529.5,193.0762,1539.5,197.0762,1529.5,201.0762,1533.5,197.0762" style="stroke:#181818;stroke-width:1.0;"/><line style="stroke:#181818;stroke-width:1.0;" x1="214.5" x2="1535.5" y1="197.0762" y2="197.0762"/><text fill="#000000" font-family="sans-serif" font-size="13" font-weight="bold" lengthAdjust="spacing" textLength="7" x="221.5" y="191.8135">5</text><text fill="#000000" font-family="sans-serif" font-size="13" lengthAdjust="spacing" textLength="61" x="232.5" y="191.8135">&#36873;&#20030;leader</text><!--SRC=[hP2xJiD044LxVuNb1YXYzove24WKDEOBXlKbMMbVpCv6egE4I4ZqqD3HqIAG-1gCn5yGyr0YYmwNCtDcpkxTcek4M5TLCEGaMLCgRwk8imIdC6arpPXibb4Ixv8z0MV55AUKZ4nr32Hg3cuGVMA58t8q0-zv6xo3amDIulcyL0mIREyK-MGtBnXHzbqRl1uIpSPaHTVTpMEtVEYxn-352Ee1tL_L2eSsc3LOvztbRVVoF63_xVwkDhQJS-1UEEpzxFy-P3qU8_e__bz68Uu3prVAhyZVxwwxvVtOkWR26WioGs-TVrnSlJsz6b0B_WG0]--></g></svg>